HIERARCHY
ROOT Hips
{
 OFFSET 0.000000 0.000000 0.000000
 CHANNELS 6 Xposition Yposition Zposition Yrotation Xrotation Zrotation
 JOINT Chest
 {
  OFFSET 0.000000 9.857222 0.000240
  CHANNELS 3 Yrotation Xrotation Zrotation
  JOINT Chest2
  {
   OFFSET 0.000000 10.876940 -0.000436
   CHANNELS 3 Yrotation Xrotation Zrotation
   JOINT Chest3
   {
    OFFSET 0.000000 9.827798 0.000000
    CHANNELS 3 Yrotation Xrotation Zrotation
    JOINT Chest4
    {
     OFFSET 0.000000 9.827798 0.000000
     CHANNELS 3 Yrotation Xrotation Zrotation
     JOINT Neck
     {
      OFFSET 0.000000 13.831992 0.000000
      CHANNELS 3 Yrotation Xrotation Zrotation
      JOINT Head
      {
       OFFSET 0.000000 9.147643 -0.001036
       CHANNELS 3 Yrotation Xrotation Zrotation
       End Site
       {
        OFFSET 0.000000 17.515799 -0.000541
       }
      }
     }
     JOINT RightCollar
     {
      OFFSET -3.001579 7.717577 0.000000
      CHANNELS 3 Yrotation Xrotation Zrotation
      JOINT RightShoulder
      {
       OFFSET -14.002642 0.000000 0.000000
       CHANNELS 3 Yrotation Xrotation Zrotation
       JOINT RightElbow
       {
        OFFSET -30.053852 0.000000 0.000000
        CHANNELS 3 Yrotation Xrotation Zrotation
        JOINT RightWrist
        {
         OFFSET -24.564923 0.000000 -0.000000
         CHANNELS 3 Yrotation Xrotation Zrotation
         End Site
         {
          OFFSET -18.334355 0.000000 0.000000
         }
        }
       }
      }
     }
     JOINT LeftCollar
     {
      OFFSET 3.001579 7.717577 0.000000
      CHANNELS 3 Yrotation Xrotation Zrotation
      JOINT LeftShoulder
      {
       OFFSET 14.002642 0.000000 0.000000
       CHANNELS 3 Yrotation Xrotation Zrotation
       JOINT LeftElbow
       {
        OFFSET 30.053852 0.000000 0.000000
        CHANNELS 3 Yrotation Xrotation Zrotation
        JOINT LeftWrist
        {
         OFFSET 24.564923 0.000000 -0.000000
         CHANNELS 3 Yrotation Xrotation Zrotation
         End Site
         {
          OFFSET 18.334355 0.000000 0.000000
         }
        }
       }
      }
     }
    }
   }
  }
 }
 JOINT RightHip
 {
  OFFSET -8.003235 -0.001175 -0.000120
  CHANNELS 3 Yrotation Xrotation Zrotation
  JOINT RightKnee
  {
   OFFSET 0.000000 -41.759727 0.000113
   CHANNELS 3 Yrotation Xrotation Zrotation
   JOINT RightAnkle
   {
    OFFSET 0.000000 -40.728748 0.000159
    CHANNELS 3 Yrotation Xrotation Zrotation
    JOINT RightToe
    {
     OFFSET 0.000000 -6.515296 14.732841
     CHANNELS 3 Yrotation Xrotation Zrotation
     End Site
     {
      OFFSET 0.000000 -1.502839 6.412115
     }
    }
   }
  }
 }
 JOINT LeftHip
 {
  OFFSET 8.003235 -0.001175 -0.000120
  CHANNELS 3 Yrotation Xrotation Zrotation
  JOINT LeftKnee
  {
   OFFSET 0.000000 -41.759727 0.000113
   CHANNELS 3 Yrotation Xrotation Zrotation
   JOINT LeftAnkle
   {
    OFFSET 0.000000 -40.728748 0.000159
    CHANNELS 3 Yrotation Xrotation Zrotation
    JOINT LeftToe
    {
     OFFSET 0.000000 -6.515296 14.732841
     CHANNELS 3 Yrotation Xrotation Zrotation
     End Site
     {
      OFFSET 0.000000 -1.502839 6.412115
     }
    }
   }
  }
 }
}
MOTION
Frames: 11
Frame Time: 0.016667
9.924894 90.422911 19.970739 -36.333463 -19.540121 16.983871 -0.759919 15.499098 14.248356 0.604218 6.482262 6.367877 0.604218 6.482262 6.367877 0.384925 4.868612 4.764371 -5.649661 18.465371 -4.586706 -8.870560 -1.979007 -6.570272 11.348620 -14.189460 6.451747 16.945279 3.111987 63.632361 8.389223 -10.521512 -12.889255 -6.181819 -2.434605 -14.857610 -6.486387 -5.822706 -5.886043 14.248420 7.018334 -16.708260 -34.789450 -16.197515 39.921773 -10.078201 10.382762 17.810100 -1.900843 26.950201 -29.304926 -11.865050 -2.822037 4.196878 -1.858717 -3.577721 6.463051 -0.641480 1.285477 -0.325063 9.890576 19.546551 -2.798721 -1.006743 14.000151 -2.558834 -1.579699 -7.147269 -5.578469 -0.280143 -1.760247 -0.049415
10.320711 90.468223 20.169146 -36.445525 -19.781555 17.857834 -0.978760 15.845360 14.212207 0.555615 6.541614 6.480690 0.555615 6.541614 6.480690 0.346662 4.912750 4.849257 -5.784677 17.969406 -4.493488 -9.144675 -2.895771 -6.335388 11.663347 -14.853030 6.159593 16.142447 3.649487 62.722547 8.904170 -10.278018 -12.959811 -6.847860 -2.310120 -14.885737 -6.175891 -6.081912 -5.656409 13.655582 7.073224 -15.776942 -35.746813 -14.703903 41.147071 -10.119023 10.429921 17.981024 -1.720901 27.246146 -30.385085 -11.901982 -2.350625 4.019922 -1.737871 -3.837753 7.110923 -1.084663 1.226611 -0.493081 9.355122 19.848210 -4.052013 -0.664263 14.150465 -2.412172 -1.755370 -7.219365 -5.453189 -0.159983 -1.799789 0.017219
10.445799 90.550871 20.429361 -35.613348 -21.206977 18.137805 -2.304976 17.059240 14.421399 0.502458 6.585212 6.581726 0.502458 6.585212 6.581726 0.305267 4.944992 4.925413 -5.904404 17.451189 -4.375404 -9.402229 -3.852090 -6.056430 12.090088 -15.360053 5.892666 15.071657 4.061099 61.574226 9.303822 -9.708764 -12.946278 -7.498092 -2.200006 -14.680274 -5.827598 -6.302748 -5.399147 12.909853 7.276700 -14.848731 -36.710556 -13.483644 42.334304 -10.070336 10.453014 18.021578 -2.543371 28.403411 -31.332868 -13.627904 -1.075631 4.903720 -1.465814 -4.171173 6.521090 -0.454943 0.841340 -0.172660 7.872052 20.939015 -4.651697 -0.208467 14.340361 -2.395108 -2.078948 -7.379656 -5.350495 -0.087408 -1.766708 0.070029
10.766404 90.523355 20.287438 -36.133160 -20.260845 18.750502 -1.604207 16.302264 14.824122 0.454661 6.644014 6.671832 0.454661 6.644014 6.671832 0.267823 4.988671 4.993290 -6.021001 16.934963 -4.224945 -9.669055 -4.802513 -5.716025 12.423052 -15.592457 5.698385 13.964700 4.149085 60.424334 9.781948 -9.165589 -13.013776 -8.317825 -1.693168 -14.188623 -5.500199 -6.440545 -5.103035 11.966880 7.672723 -13.977569 -37.687179 -12.555843 43.566444 -10.077327 10.654976 17.933735 -1.229255 28.037474 -31.469996 -14.568021 -1.515775 4.773447 -1.606144 -4.048811 6.636843 -0.433704 1.200144 -0.136000 8.435877 20.065437 -5.279504 0.023164 14.517818 -2.481120 -2.282273 -7.608774 -5.230189 -0.044151 -1.543356 0.113654
10.781187 90.612670 20.331528 -35.607037 -21.195667 19.043583 -2.473428 16.899702 15.140610 0.389609 6.719080 6.768633 0.389609 6.719080 6.768633 0.217178 5.044351 5.066340 -6.120045 16.429429 -4.093902 -9.900515 -5.733124 -5.415241 12.720114 -15.726467 5.491547 12.929933 4.129182 59.373907 10.038986 -8.438644 -13.152666 -9.020020 -1.299678 -13.792595 -5.201346 -6.408334 -4.919042 10.957561 8.047666 -13.169597 -38.307055 -11.410577 44.779778 -10.179010 10.608704 17.876829 -2.376777 28.539518 -31.951387 -14.292189 -1.122385 4.617789 -2.353983 -4.145517 6.355079 0.201464 1.030211 0.168958 7.495342 20.699065 -5.703947 -0.107385 14.665264 -2.603252 -1.967547 -7.649149 -5.186471 -0.157899 -1.542248 0.098803
10.541359 90.754703 20.541004 -34.578250 -22.872764 19.238968 -4.099271 17.947952 15.321228 0.318346 6.767993 6.876880 0.318346 6.767993 6.876880 0.162028 5.080332 5.148105 -6.207063 15.986396 -3.992057 -10.102113 -6.548626 -5.173465 13.065681 -15.636876 5.293517 12.260426 4.154358 58.461745 10.186274 -8.028225 -13.301206 -9.478173 -1.367416 -13.833931 -4.956154 -6.329151 -4.828293 9.994710 8.426950 -12.445457 -38.768808 -10.103212 46.003733 -10.265077 10.401825 17.851459 -4.222304 29.330446 -32.581110 -15.064559 0.333821 4.457880 -2.302254 -4.626186 6.060588 0.879457 0.547505 0.489910 5.934498 21.986354 -6.088068 -0.344688 14.803295 -2.691345 -1.550151 -7.601217 -5.215698 -0.392963 -1.719998 0.033865
10.281466 90.819817 20.782500 -33.727531 -23.281569 19.818077 -5.349684 17.926428 15.170970 0.230606 6.809514 6.975748 0.230606 6.809514 6.975748 0.094708 5.110550 5.223053 -6.204129 15.551581 -3.898684 -10.135341 -7.350248 -4.978991 13.734520 -15.320720 5.131977 11.948057 4.110570 57.642256 10.520403 -8.484064 -13.701046 -9.877596 -1.280569 -14.390849 -4.591142 -6.304578 -4.747759 9.065161 8.858384 -11.890558 -39.264663 -8.946264 47.402150 -10.311941 10.278211 17.813863 -5.586749 28.922742 -33.396988 -15.692985 1.799111 3.763160 -2.056626 -5.550363 6.406908 0.983199 0.453391 0.553367 4.780603 22.215606 -6.816930 -0.377312 14.930615 -2.943595 -1.469682 -7.539841 -5.191399 -0.546976 -1.957222 -0.004928
10.186285 90.607438 20.496763 -35.819761 -17.855135 21.291208 -1.750632 13.511269 15.456386 0.185527 6.845213 7.054351 0.185527 6.845213 7.054351 0.059634 5.136856 5.282362 -6.203530 15.096381 -3.733730 -10.202087 -8.185863 -4.647887 14.395676 -15.250226 5.117643 11.614707 4.232156 56.859069 10.929767 -9.197312 -14.328803 -10.243620 -0.863261 -15.789994 -4.369305 -6.385702 -4.498177 8.237959 9.190247 -11.227545 -39.895649 -8.100466 48.623235 -10.288652 10.331028 17.772821 -1.404668 23.620123 -33.063399 -16.221420 2.876204 1.967886 -1.325843 -7.468618 7.724294 -0.081047 2.135493 0.112459 8.286737 18.073237 -7.804805 -0.412585 14.970845 -3.106191 -1.225113 -7.685654 -5.181310 -0.959451 -1.972809 -0.169691
9.552818 90.683063 20.638985 -35.297762 -17.670453 21.867253 -2.384235 13.169370 15.435645 0.131333 6.880938 7.132751 0.131333 6.880938 7.132751 0.017725 5.163064 5.341626 -6.182552 14.660499 -3.561518 -10.235947 -8.985370 -4.310242 15.224873 -15.380713 5.027708 11.147560 4.608391 56.280556 11.279729 -9.606286 -15.254245 -10.667937 -0.559843 -17.720059 -3.909767 -6.625797 -4.214815 7.439462 9.411395 -10.365572 -40.476504 -7.227066 49.477659 -10.243152 10.340766 17.787539 -1.200240 23.629338 -31.832162 -17.480030 3.119908 -0.820653 -1.765284 -8.165888 8.829712 0.091254 2.312064 0.199219 7.874108 18.043762 -8.253481 -0.495358 14.912982 -3.181614 -0.751575 -7.478012 -5.222925 -1.607643 -2.305674 -0.441697
8.218892 91.081716 21.331713 -30.212302 -25.136845 19.842142 -9.627097 18.548277 15.682867 0.106127 6.885133 7.206907 0.106127 6.885133 7.206907 -0.002049 5.165947 5.397453 -6.193992 14.236734 -3.338293 -10.353252 -9.758437 -3.863197 15.848761 -15.494850 4.902081 10.713835 4.906437 55.922570 11.665371 -9.820224 -16.208057 -11.707358 0.006620 -20.178092 -3.511097 -6.839205 -3.888402 6.679675 9.444793 -9.558783 -40.922681 -6.124324 50.351560 -10.228656 10.164770 17.989651 -7.222056 30.620689 -28.586622 -19.054650 2.607094 -3.822453 -5.474248 -6.577347 8.257200 3.663789 -0.123913 1.660105 1.267505 23.516678 -7.149235 -0.679575 14.819088 -3.269114 0.184005 -7.607088 -5.245005 -2.604534 -2.244267 -0.890307
6.982026 91.384341 21.507049 -26.683695 -29.444019 17.529183 -14.032026 21.763378 16.311584 0.104647 6.881466 7.268155 0.104647 6.881466 7.268155 -0.003806 5.163204 5.443358 -6.243579 13.859542 -3.081114 -10.558371 -10.441132 -3.337373 16.224896 -15.355172 4.778456 10.521693 4.959902 55.860080 11.656842 -9.439343 -17.011329 -13.036151 0.166261 -22.960228 -3.283396 -6.992314 -3.530260 6.119322 9.724815 -8.716683 -41.680835 -5.401727 51.575639 -10.243820 10.078017 18.165276 -10.770593 35.028490 -25.379551 -20.802364 1.103087 -5.946401 -7.625886 -4.512381 7.344742 6.463068 -2.180153 2.610849 -2.688986 26.692819 -5.987613 -0.860259 14.741597 -3.328103 1.707253 -7.842759 -5.207264 -4.003659 -1.976986 -1.551539
